<svg width="32" height="23" viewBox="0 0 32 23" fill="none" xmlns="http://www.w3.org/2000/svg">
<path d="M17.1731 0H9.21154C8.62522 0.000702322 8.06311 0.233929 7.64852 0.64852C7.23393 1.06311 7.0007 1.62522 7 2.21154V20.7885C7 22.0075 7.99165 23 9.21154 23H17.1731C18.393 23 19.3846 22.0075 19.3846 20.7885V2.21154C19.3846 0.992538 18.393 0 17.1731 0ZM9.21154 0.884615H17.1731C17.9047 0.884615 18.5 1.47996 18.5 2.21154V3H7.88462V2.21154C7.88462 1.47996 8.47996 0.884615 9.21154 0.884615ZM18.5 18H7.88462V4H18.5V18ZM17.1731 22.1154H9.21154C8.47996 22.1154 7.88462 21.52 7.88462 20.7885V19H18.5V20.7885C18.5 21.52 17.9047 22.1154 17.1731 22.1154Z" fill="#404040"/>
<path d="M12.3075 2.45493H14.0768C14.1941 2.45493 14.3066 2.40833 14.3895 2.32538C14.4725 2.24243 14.5191 2.12993 14.5191 2.01262C14.5191 1.89531 14.4725 1.78281 14.3895 1.69986C14.3066 1.61691 14.1941 1.57031 14.0768 1.57031H12.3075C12.1902 1.57031 12.0777 1.61691 11.9948 1.69986C11.9118 1.78281 11.8652 1.89531 11.8652 2.01262C11.8652 2.12993 11.9118 2.24243 11.9948 2.32538C12.0777 2.40833 12.1902 2.45493 12.3075 2.45493Z" fill="#404040"/>
<path d="M13.1922 21.2302C13.6808 21.2302 14.0768 20.8341 14.0768 20.3456C14.0768 19.857 13.6808 19.4609 13.1922 19.4609C12.7037 19.4609 12.3076 19.857 12.3076 20.3456C12.3076 20.8341 12.7037 21.2302 13.1922 21.2302Z" fill="#404040"/>
<path d="M10.9479 13.032C12.8958 13.4216 14.0646 13.032 15.2333 13.032C16.1683 13.032 17.1813 12.7723 17.5708 12.6424C17.5708 13.4216 16.1683 14.5904 15.2333 14.5904C14.8438 14.5904 15.1035 15.1098 15.6229 15.3695L14.0646 15.7591C13.1556 15.7591 11.3375 15.6812 11.3375 15.3695C11.3375 15.0579 11.5972 14.7202 11.7271 14.5904C11.2076 14.4605 10.0908 14.1229 9.77917 13.8112C9.48031 13.5123 9.16053 12.5056 9.02167 11.9809C9.01389 11.9581 9.00836 11.9365 9.00483 11.9162C9.0101 11.9368 9.01572 11.9585 9.02167 11.9809C9.1217 12.2742 9.59312 12.7611 10.9479 13.032Z" fill="#F96E4D"/>
<path d="M12.4584 14.7795C12.7416 14.8062 13.0475 14.8203 13.3785 14.8203C18.0796 14.8203 17.758 11.9355 17.758 11.9355" stroke="#3C3C3C" stroke-width="0.5" stroke-miterlimit="10" stroke-linecap="round" stroke-linejoin="round"/>
<path d="M9.00558 11.9355C9.00558 11.9355 8.76114 14.0953 11.7402 14.6773" stroke="#3C3C3C" stroke-width="0.5" stroke-miterlimit="10" stroke-linecap="round" stroke-linejoin="round"/>
<path d="M9.46519 11.3184C9.1705 11.5047 9.00468 11.7149 9.00468 11.9374C9.00468 12.7023 10.964 13.3219 13.3812 13.3219C15.7985 13.3219 17.7578 12.702 17.7578 11.9374C17.7578 11.7309 17.6148 11.5347 17.3585 11.3589" stroke="#3C3C3C" stroke-width="0.5" stroke-miterlimit="10" stroke-linecap="round" stroke-linejoin="round"/>
<path d="M15.0236 14.6777L15.4575 15.1283C15.5944 15.2704 15.5255 15.5141 15.336 15.5555C14.765 15.6804 14.0964 15.7523 13.382 15.7523C12.6673 15.7523 11.999 15.6804 11.4279 15.5555C11.2385 15.5141 11.1696 15.2704 11.3065 15.1283L11.7398 14.6783" stroke="#3C3C3C" stroke-width="0.5" stroke-miterlimit="10" stroke-linecap="round" stroke-linejoin="round"/>
<path d="M13.6566 10.6892C13.7662 10.4826 13.8023 10.2334 13.737 9.98787C13.6046 9.48851 13.1071 9.1954 12.6262 9.3329C12.5668 9.35009 12.5103 9.3728 12.4574 9.40073C12.4627 9.30129 12.4571 9.20031 12.4302 9.09903C12.2975 8.59967 11.8004 8.30656 11.3195 8.44406C10.8386 8.58187 10.5563 9.09811 10.6887 9.59747C10.7153 9.69783 10.7599 9.78714 10.8129 9.86878C10.7608 9.874 10.7088 9.88137 10.6568 9.89641C10.1759 10.0342 9.89362 10.5505 10.026 11.0498C10.0911 11.2953 10.2451 11.4899 10.4413 11.609C10.2655 11.7287 10.1363 11.9067 10.0733 12.1099" stroke="#3C3C3C" stroke-width="0.5" stroke-miterlimit="10" stroke-linecap="round" stroke-linejoin="round"/>
<path d="M12.4746 12.5835L11.8235 10.1309" stroke="#3C3C3C" stroke-width="0.5" stroke-miterlimit="10" stroke-linecap="round" stroke-linejoin="round"/>
<path d="M12.0879 11.1256L11.5934 10.834" stroke="#3C3C3C" stroke-width="0.5" stroke-miterlimit="10" stroke-linecap="round" stroke-linejoin="round"/>
<path d="M12.3737 12.2063L12.8594 11.3184" stroke="#3C3C3C" stroke-width="0.5" stroke-miterlimit="10" stroke-linecap="round" stroke-linejoin="round"/>
<path d="M13.3329 8.84103C13.4425 8.75785 13.5758 8.70905 13.7153 8.70445C13.634 8.54792 13.6086 8.36008 13.6592 8.17562C13.7623 7.80026 14.1389 7.58296 14.5001 7.69008C14.5447 7.70327 14.587 7.72108 14.6269 7.74225C14.6233 7.66736 14.6284 7.59125 14.6493 7.51513C14.7522 7.13946 15.1288 6.92216 15.4902 7.02928C15.8517 7.13609 16.061 7.5271 15.9578 7.90246C15.9372 7.97797 15.9029 8.04488 15.8624 8.10595C15.9014 8.11025 15.9407 8.11639 15.9797 8.12774C16.3412 8.23486 16.5505 8.62588 16.4473 9.00093C16.3968 9.18539 16.2794 9.33087 16.1311 9.41957C16.2629 9.51073 16.3589 9.64577 16.4051 9.79923" stroke="#3C3C3C" stroke-width="0.5" stroke-miterlimit="10" stroke-linecap="round" stroke-linejoin="round"/>
<path d="M14.609 10.2601L15.0996 8.41211" stroke="#3C3C3C" stroke-width="0.5" stroke-miterlimit="10" stroke-linecap="round" stroke-linejoin="round"/>
<path d="M14.9009 9.16032L15.4971 8.80859" stroke="#3C3C3C" stroke-width="0.5" stroke-miterlimit="10" stroke-linecap="round" stroke-linejoin="round"/>
<path d="M14.6846 9.97344L14.4333 9.51367" stroke="#3C3C3C" stroke-width="0.5" stroke-miterlimit="10" stroke-linecap="round" stroke-linejoin="round"/>
<path d="M16.96 12.0235C16.8793 11.8899 16.7613 11.7782 16.6133 11.707C16.563 11.6828 16.5116 11.6647 16.4596 11.6521C16.5187 11.5873 16.5713 11.5146 16.6091 11.4289C16.7968 11.0069 16.6192 10.5067 16.2127 10.3121C15.8063 10.1172 15.3245 10.3016 15.1372 10.7236C15.0993 10.8084 15.0804 10.8964 15.0709 10.9845C15.0325 10.9569 14.9926 10.9305 14.9486 10.9096C14.5422 10.7147 14.0604 10.8992 13.873 11.3212C13.7808 11.5287 13.7775 11.7546 13.8458 11.9544C13.6584 11.9308 13.4704 11.975 13.3141 12.0765" stroke="#3C3C3C" stroke-width="0.5" stroke-miterlimit="10" stroke-linecap="round" stroke-linejoin="round"/>
<path d="M15.0402 12.6L15.707 11.3008" stroke="#3C3C3C" stroke-width="0.5" stroke-miterlimit="10" stroke-linecap="round" stroke-linejoin="round"/>
<path d="M15.3465 12.0048L15.7754 11.8691" stroke="#3C3C3C" stroke-width="0.5" stroke-miterlimit="10" stroke-linecap="round" stroke-linejoin="round"/>
<path d="M15.1074 12.4699L14.9174 11.8223" stroke="#3C3C3C" stroke-width="0.5" stroke-miterlimit="10" stroke-linecap="round" stroke-linejoin="round"/>
</svg>
