<svg width="20" height="23" viewBox="0 0 20 23" fill="none" xmlns="http://www.w3.org/2000/svg">
<g clip-path="url(#clip0_394_16900)">
<path d="M3.23031 18.0295C1.83031 16.2995 1.07031 14.1395 1.07031 11.9195V10.2595C1.07031 10.1295 1.18031 10.0195 1.31031 10.0195H15.4603C15.5903 10.0195 15.7003 10.1295 15.7003 10.2595V11.9195C15.7003 14.1395 14.9403 16.2995 13.5403 18.0295" stroke="#404040" stroke-width="0.9145" stroke-miterlimit="10" stroke-linecap="round" stroke-linejoin="round"/>
<path d="M2.22022 22.0594H14.9702C15.5302 22.0594 16.0402 21.6494 16.2902 21.0094L16.7102 19.9194C16.7602 19.7794 16.6802 19.6094 16.5602 19.6094H0.620215C0.500215 19.6094 0.420215 19.7794 0.470215 19.9194L0.890215 21.0094C1.15022 21.6494 1.66022 22.0594 2.22022 22.0594Z" stroke="#404040" stroke-width="0.9145" stroke-miterlimit="10" stroke-linecap="round" stroke-linejoin="round"/>
<path d="M17.4102 11.209C17.6802 11.279 17.9302 11.409 18.1602 11.589C18.6202 11.959 18.8802 12.519 18.8802 13.099C18.8802 14.849 17.7702 16.409 16.1202 16.979L15.7002 17.129" stroke="#404040" stroke-width="0.9145" stroke-miterlimit="10" stroke-linecap="round" stroke-linejoin="round"/>
<path d="M4.7002 8.36992C4.7002 7.41992 5.3702 7.41992 5.3702 6.46992C5.3702 5.51992 4.7002 5.51992 4.7002 4.56992C4.7002 3.61992 5.3702 3.61992 5.3702 2.66992" stroke="#F36F4F" stroke-width="0.9145" stroke-miterlimit="10" stroke-linecap="round" stroke-linejoin="round"/>
<path d="M8.0498 6.14922C8.0498 5.19922 8.7198 5.19922 8.7198 4.24922C8.7198 3.29922 8.0498 3.29922 8.0498 2.34922C8.0498 1.39922 8.7198 1.39922 8.7198 0.449219" stroke="#F36F4F" stroke-width="0.9145" stroke-miterlimit="10" stroke-linecap="round" stroke-linejoin="round"/>
<path d="M11.3906 8.36992C11.3906 7.41992 12.0606 7.41992 12.0606 6.46992C12.0606 5.51992 11.3906 5.51992 11.3906 4.56992C11.3906 3.61992 12.0606 3.61992 12.0606 2.66992" stroke="#F36F4F" stroke-width="0.9145" stroke-miterlimit="10" stroke-linecap="round" stroke-linejoin="round"/>
</g>
<defs>
<clipPath id="clip0_394_16900">
<rect width="19.33" height="22.51" fill="white"/>
</clipPath>
</defs>
</svg>
