<svg width="27" height="23" viewBox="0 0 27 23" fill="none" xmlns="http://www.w3.org/2000/svg">
<g clip-path="url(#clip0_394_16923)">
<path d="M17.0506 19.34H8.96062C4.22062 19.34 0.390625 15.5 0.390625 10.77V9.5H25.6206V10.77C25.6206 15.5 21.7806 19.34 17.0506 19.34Z" stroke="#3E4559" stroke-width="0.7751" stroke-miterlimit="10" stroke-linecap="round" stroke-linejoin="round"/>
<path d="M18.1801 20.1914V21.3714C18.1801 21.7114 17.9001 21.9914 17.5601 21.9914H8.45008C8.11008 21.9914 7.83008 21.7114 7.83008 21.3714V20.1914" stroke="#3E4559" stroke-width="0.7751" stroke-miterlimit="10" stroke-linecap="round" stroke-linejoin="round"/>
<path d="M1.06071 8.77125C0.540706 7.73125 0.560706 6.71125 0.570706 6.28125C0.600706 4.62125 1.40071 3.46125 1.74071 3.03125C2.36071 3.21125 3.63071 3.68125 4.74071 4.85125C5.21071 5.34125 6.21071 6.38125 6.38071 8.02125" stroke="#3E4559" stroke-width="0.7751" stroke-miterlimit="10" stroke-linecap="round" stroke-linejoin="round"/>
<path d="M2.91016 7.05078C2.91016 7.08078 2.92016 7.11078 2.92016 7.15078C2.97016 7.71078 3.11016 8.26078 3.33016 8.76078" stroke="#3E4559" stroke-width="0.7751" stroke-miterlimit="10" stroke-linecap="round" stroke-linejoin="round"/>
<path d="M5.49023 4.22969C6.14023 2.68969 7.22023 1.42969 8.43023 1.42969C10.4202 1.42969 12.0402 4.82969 12.0402 7.31969C12.0402 7.59969 12.0202 7.86969 11.9802 8.11969" stroke="#F36F4F" stroke-width="0.7751" stroke-miterlimit="10" stroke-linecap="round" stroke-linejoin="round"/>
<path d="M8.4207 7.88047C9.08345 7.88047 9.6207 7.34321 9.6207 6.68047C9.6207 6.01773 9.08345 5.48047 8.4207 5.48047C7.75796 5.48047 7.2207 6.01773 7.2207 6.68047C7.2207 7.34321 7.75796 7.88047 8.4207 7.88047Z" stroke="#F36F4F" stroke-width="0.7751" stroke-miterlimit="10" stroke-linecap="round" stroke-linejoin="round"/>
<path d="M22.2006 7.96142C22.1406 7.78142 22.0506 7.60142 21.9406 7.43142C22.2306 7.29142 22.4906 7.08142 22.6906 6.81142C23.4006 5.87142 23.2106 4.53142 22.2706 3.82142C21.3306 3.11142 19.9906 3.29142 19.2806 4.24142C19.1506 4.41142 19.0606 4.59142 18.9906 4.77142C18.1406 4.47142 17.1506 4.73142 16.5706 5.49142C16.2406 5.92142 16.1106 6.44142 16.1506 6.94142C15.4906 6.93142 14.8406 7.22142 14.4206 7.78142C14.2806 7.97142 14.1706 8.17142 14.1006 8.38142" stroke="#F36F4F" stroke-width="0.7751" stroke-miterlimit="10" stroke-linecap="round" stroke-linejoin="round"/>
<path d="M19.7309 6.94922L18.8809 8.06922" stroke="#F36F4F" stroke-width="0.7751" stroke-miterlimit="10" stroke-linecap="round" stroke-linejoin="round"/>
<path d="M11.4805 2.73016C12.0105 2.37016 12.6505 2.16016 13.3405 2.16016C14.6005 2.16016 15.6905 2.86016 16.2505 3.89016" stroke="#3E4559" stroke-width="0.7751" stroke-miterlimit="10" stroke-linecap="round" stroke-linejoin="round"/>
<path d="M23.9805 5.62109H24.2105C24.6605 5.62109 25.0205 5.98109 25.0205 6.43109V7.89109" stroke="#F36F4F" stroke-width="0.7751" stroke-miterlimit="10" stroke-linecap="round" stroke-linejoin="round"/>
<path d="M16.6104 2.38063L17.8504 0.390625L18.1304 0.880625C18.6004 1.70063 18.6804 2.68063 18.3604 3.56063L18.3404 3.62063" stroke="#F36F4F" stroke-width="0.7751" stroke-miterlimit="10" stroke-linecap="round" stroke-linejoin="round"/>
</g>
<defs>
<clipPath id="clip0_394_16923">
<rect width="26.01" height="22.38" fill="white"/>
</clipPath>
</defs>
</svg>
