<svg width="25" height="21" viewBox="0 0 25 21" fill="none" xmlns="http://www.w3.org/2000/svg">
<path d="M1.70669 7.76018L1.53613 5.83984" stroke="#404040" stroke-width="0.81" stroke-miterlimit="10" stroke-linecap="round" stroke-linejoin="round"/>
<path d="M13.6696 5.83984L13.499 7.76018" stroke="#404040" stroke-width="0.81" stroke-miterlimit="10" stroke-linecap="round" stroke-linejoin="round"/>
<path d="M2.50195 16.7051C2.54244 17.1621 2.58292 17.6192 2.62427 18.0771C2.67337 18.6305 2.67595 19.1982 3.19365 19.5556C3.7613 19.9476 4.80703 19.7744 5.45565 19.7744C6.13615 19.7744 6.81665 19.7744 7.498 19.7744" stroke="#404040" stroke-width="0.81" stroke-miterlimit="10" stroke-linecap="round" stroke-linejoin="round"/>
<path d="M13.7706 9.87526L13.9541 8.14924C13.9765 7.94141 13.8093 7.75977 13.5966 7.75977H1.6095C1.39588 7.75977 1.22963 7.94141 1.25202 8.14924L2.1272 16.3882C2.14615 16.5681 2.3012 16.7041 2.48467 16.7041H8.01651" stroke="#404040" stroke-width="0.81" stroke-miterlimit="10" stroke-linecap="round" stroke-linejoin="round"/>
<path d="M14.2254 5.04432H0.980681C0.662829 5.04432 0.405273 4.79171 0.405273 4.47996V3.19326C0.405273 2.88151 0.662829 2.62891 0.980681 2.62891H14.2254C14.5432 2.62891 14.8008 2.88151 14.8008 3.19326V4.47996C14.8008 4.79171 14.5424 5.04432 14.2254 5.04432Z" stroke="#404040" stroke-width="0.81" stroke-miterlimit="10" stroke-linecap="round" stroke-linejoin="round"/>
<path d="M2.45605 1.81519L2.65934 0.84615C2.71361 0.588473 2.94446 0.404297 3.21235 0.404297H11.9933C12.2612 0.404297 12.4921 0.589318 12.5464 0.84615L12.7496 1.81519" stroke="#404040" stroke-width="0.81" stroke-miterlimit="10" stroke-linecap="round" stroke-linejoin="round"/>
<path d="M23.2395 15.5197H8.99904C8.64415 15.5197 8.35645 15.2375 8.35645 14.8894V14.8607C8.35645 14.5126 8.64415 14.2305 8.99904 14.2305H23.2395C23.5944 14.2305 23.8821 14.5126 23.8821 14.8607V14.8894C23.8821 15.2375 23.5944 15.5197 23.2395 15.5197Z" stroke="#F36F4F" stroke-width="0.81" stroke-miterlimit="10" stroke-linecap="round" stroke-linejoin="round"/>
<path d="M9.36328 16.1504L10.2893 19.3236C10.3737 19.6126 10.6433 19.8119 10.9491 19.8119H14.5101C14.9502 19.8119 15.3163 19.4825 15.3551 19.0524L15.4361 18.1459C15.4671 17.7987 15.7634 17.5317 16.1191 17.5317C16.2975 17.5317 16.4603 17.5985 16.5826 17.7091C16.7049 17.819 16.7867 17.9727 16.8022 18.1468L16.8832 19.0533C16.9211 19.4833 17.2881 19.8128 17.7282 19.8128H21.2892C21.5959 19.8128 21.8646 19.6134 21.9499 19.3245L22.8759 16.1512" stroke="#F36F4F" stroke-width="0.81" stroke-miterlimit="10" stroke-linecap="round" stroke-linejoin="round"/>
<path d="M23.1808 13.6105L22.2204 11.3649C22.0188 10.8935 21.5476 10.5859 21.0265 10.5859H11.1817C10.6605 10.5859 10.1894 10.8926 9.98779 11.3649L9.02734 13.6105" stroke="#F36F4F" stroke-width="0.81" stroke-miterlimit="10" stroke-linecap="round" stroke-linejoin="round"/>
<path d="M14.1299 13.611V13.3939C14.1299 12.9318 14.5123 12.5566 14.9835 12.5566H17.224C17.6952 12.5566 18.0776 12.9318 18.0776 13.3939V13.611" stroke="#F36F4F" stroke-width="0.81" stroke-miterlimit="10" stroke-linecap="round" stroke-linejoin="round"/>
</svg>
