<svg width="38" height="22" viewBox="0 0 38 22" fill="none" xmlns="http://www.w3.org/2000/svg">
<g clip-path="url(#clip0_339_15937)">
<path d="M16.4099 17.6508H11.8899C11.6999 17.6508 11.5499 17.5008 11.5499 17.3108C11.5499 17.1208 11.6999 16.9708 11.8899 16.9708H16.0699V3.97078H12.3999C11.0299 3.97078 9.85988 4.90078 9.53988 6.23078L8.77988 9.47078C8.74988 9.61078 8.62988 9.72078 8.48988 9.73078C8.45988 9.73078 7.14988 9.90078 5.64988 10.0808L2.62988 10.4608C2.01988 10.5408 1.55988 11.0608 1.55988 11.6708V15.5308C1.55988 15.7208 1.40988 15.8708 1.21988 15.8708C1.02988 15.8708 0.879883 15.7208 0.879883 15.5308V11.6708C0.879883 10.7108 1.59988 9.90078 2.53988 9.78078L5.55988 9.40078C7.01988 9.22078 7.75988 9.12078 8.15988 9.09078L8.86988 6.07078C9.26988 4.44078 10.7099 3.30078 12.3999 3.30078H16.4099C16.5999 3.30078 16.7499 3.45078 16.7499 3.64078V17.3108C16.7499 17.4908 16.5999 17.6508 16.4099 17.6508Z" fill="#404040"/>
<path d="M16.4103 17.65C16.2203 17.65 16.0703 17.5 16.0703 17.31V0.34C16.0703 0.15 16.2203 0 16.4103 0H36.0903C36.2803 0 36.4303 0.15 36.4303 0.34V15.54C36.4303 15.73 36.2803 15.88 36.0903 15.88C35.9003 15.88 35.7503 15.73 35.7503 15.54V0.68H16.7503V17.31C16.7503 17.49 16.6003 17.65 16.4103 17.65Z" fill="#404040"/>
<path d="M7.93062 21.5995C5.56063 21.5995 3.64062 19.6695 3.64062 17.3095C3.64062 14.9395 5.57063 13.0195 7.93062 13.0195C10.3006 13.0195 12.2206 14.9495 12.2206 17.3095C12.2306 19.6695 10.3006 21.5995 7.93062 21.5995ZM7.93062 13.6895C5.94062 13.6895 4.31062 15.3095 4.31062 17.3095C4.31062 19.2995 5.93062 20.9295 7.93062 20.9295C9.92062 20.9295 11.5506 19.3095 11.5506 17.3095C11.5506 15.3095 9.93062 13.6895 7.93062 13.6895Z" fill="#404040"/>
<path d="M7.93031 19.4192C6.77031 19.4192 5.82031 18.4692 5.82031 17.3092C5.82031 16.1492 6.77031 15.1992 7.93031 15.1992C9.09031 15.1992 10.0403 16.1492 10.0403 17.3092C10.0403 18.4692 9.10031 19.4192 7.93031 19.4192ZM7.93031 15.8792C7.14031 15.8792 6.50031 16.5192 6.50031 17.3092C6.50031 18.0992 7.14031 18.7392 7.93031 18.7392C8.72031 18.7392 9.36031 18.0992 9.36031 17.3092C9.36031 16.5192 8.72031 15.8792 7.93031 15.8792Z" fill="#404040"/>
<path d="M30.0205 21.5995C27.6505 21.5995 25.7305 19.6695 25.7305 17.3095C25.7305 14.9395 27.6605 13.0195 30.0205 13.0195C32.3905 13.0195 34.3105 14.9495 34.3105 17.3095C34.3105 19.6695 32.3805 21.5995 30.0205 21.5995ZM30.0205 13.6895C28.0305 13.6895 26.4005 15.3095 26.4005 17.3095C26.4005 19.2995 28.0205 20.9295 30.0205 20.9295C32.0105 20.9295 33.6405 19.3095 33.6405 17.3095C33.6305 15.3095 32.0105 13.6895 30.0205 13.6895Z" fill="#404040"/>
<path d="M30.0202 19.4192C28.8602 19.4192 27.9102 18.4692 27.9102 17.3092C27.9102 16.1492 28.8602 15.1992 30.0202 15.1992C31.1802 15.1992 32.1302 16.1492 32.1302 17.3092C32.1302 18.4692 31.1802 19.4192 30.0202 19.4192ZM30.0202 15.8792C29.2302 15.8792 28.5902 16.5192 28.5902 17.3092C28.5902 18.0992 29.2302 18.7392 30.0202 18.7392C30.8102 18.7392 31.4502 18.0992 31.4502 17.3092C31.4502 16.5192 30.8102 15.8792 30.0202 15.8792Z" fill="#404040"/>
<path d="M26.0603 17.6492H16.4103C16.2203 17.6492 16.0703 17.4992 16.0703 17.3092V15.5392C16.0703 15.3492 16.2203 15.1992 16.4103 15.1992H26.4803C26.6703 15.1992 26.8203 15.3492 26.8203 15.5392C26.8203 15.7292 26.6703 15.8792 26.4803 15.8792H16.7503V16.9692H26.0603C26.2503 16.9692 26.4003 17.1192 26.4003 17.3092C26.4003 17.4892 26.2503 17.6492 26.0603 17.6492Z" fill="#404040"/>
<path d="M37.05 17.6492H33.97C33.78 17.6492 33.63 17.4992 33.63 17.3092C33.63 17.1192 33.78 16.9692 33.97 16.9692H36.71V15.8792H33.55C33.36 15.8792 33.21 15.7292 33.21 15.5392C33.21 15.3492 33.36 15.1992 33.55 15.1992H37.04C37.23 15.1992 37.38 15.3492 37.38 15.5392V17.3092C37.39 17.4892 37.23 17.6492 37.05 17.6492Z" fill="#404040"/>
<path d="M3.98 17.6492H0.34C0.15 17.6492 0 17.4892 0 17.3092V15.5392C0 15.3492 0.15 15.1992 0.34 15.1992H4.4C4.59 15.1992 4.74 15.3492 4.74 15.5392C4.74 15.7292 4.59 15.8792 4.4 15.8792H0.68V16.9692H3.98C4.17 16.9692 4.32 17.1192 4.32 17.3092C4.32 17.4892 4.17 17.6492 3.98 17.6492Z" fill="#404040"/>
<path d="M33.0004 9.91094H19.4904C19.3004 9.91094 19.1504 9.76094 19.1504 9.57094V4.80094C19.1504 4.61094 19.3004 4.46094 19.4904 4.46094H33.0004C33.1904 4.46094 33.3404 4.61094 33.3404 4.80094V9.57094C33.3404 9.76094 33.1904 9.91094 33.0004 9.91094ZM19.8304 9.24094H32.6604V5.14094H19.8304V9.24094Z" fill="#F36F4F"/>
<path d="M34.2196 5.14125H18.2696C18.1496 5.14125 18.0296 5.07125 17.9696 4.96125C17.9096 4.85125 17.9096 4.72125 17.9796 4.62125L19.1996 2.69125C19.2596 2.59125 19.3696 2.53125 19.4896 2.53125H32.9996C33.1196 2.53125 33.2196 2.59125 33.2896 2.69125L34.5096 4.62125C34.5796 4.72125 34.5796 4.86125 34.5196 4.96125C34.4596 5.07125 34.3396 5.14125 34.2196 5.14125ZM18.8896 4.46125H33.5996L32.8096 3.21125H19.6796L18.8896 4.46125Z" fill="#F36F4F"/>
<path d="M19.4898 9.90912C19.3398 9.90912 19.1998 9.80912 19.1598 9.64912L17.9398 4.87912C17.8898 4.69912 17.9998 4.50912 18.1798 4.46912C18.3598 4.41912 18.5498 4.52912 18.5898 4.70912L19.8098 9.47912C19.8598 9.65912 19.7498 9.84912 19.5698 9.88912C19.5498 9.90912 19.5198 9.90912 19.4898 9.90912Z" fill="#F36F4F"/>
<path d="M33.0001 9.91084C32.9701 9.91084 32.9401 9.91084 32.9201 9.90084C32.7401 9.85084 32.6301 9.67084 32.6801 9.49084L33.9001 4.72084C33.9501 4.54084 34.1301 4.43084 34.3101 4.48084C34.4901 4.53084 34.6001 4.71084 34.5501 4.89084L33.3301 9.66084C33.2901 9.81084 33.1501 9.91084 33.0001 9.91084Z" fill="#F36F4F"/>
<path d="M34.2197 11.2105H18.2697C18.0797 11.2105 17.9297 11.0605 17.9297 10.8705V9.57047C17.9297 9.38047 18.0797 9.23047 18.2697 9.23047H34.2097C34.3997 9.23047 34.5497 9.38047 34.5497 9.57047V10.8605C34.5597 11.0605 34.4097 11.2105 34.2197 11.2105ZM18.6097 10.5305H33.8797V9.91047H18.6097V10.5305Z" fill="#F36F4F"/>
<path d="M1.91062 13.9003H1.23063C1.04063 13.9003 0.890625 13.7503 0.890625 13.5603V11.6603C0.890625 11.4703 1.04063 11.3203 1.23063 11.3203H3.81063C4.00063 11.3203 4.15063 11.4703 4.15063 11.6603C4.15063 12.8903 3.14062 13.9003 1.91062 13.9003ZM1.57063 13.2203H1.91062C2.66062 13.2203 3.28063 12.7003 3.44063 12.0003H1.57063V13.2203Z" fill="#404040"/>
<path d="M12.6894 9.73937H8.44938C8.25938 9.73937 8.10938 9.58937 8.10938 9.39937C8.10938 9.20937 8.25938 9.05938 8.44938 9.05938H12.6894C13.8894 9.05938 14.8694 8.07938 14.8694 6.87937V5.28937H9.76938C9.57938 5.28937 9.42938 5.13937 9.42938 4.94937C9.42938 4.75937 9.57938 4.60938 9.76938 4.60938H15.1994C15.3894 4.60938 15.5394 4.75937 15.5394 4.94937V6.87937C15.5394 8.45937 14.2594 9.73937 12.6894 9.73937Z" fill="#404040"/>
</g>
<defs>
<clipPath id="clip0_339_15937">
<rect width="37.39" height="21.6" fill="white"/>
</clipPath>
</defs>
</svg>
