<svg width="36" height="23" viewBox="0 0 36 23" fill="none" xmlns="http://www.w3.org/2000/svg">
<g clip-path="url(#clip0_394_16941)">
<path d="M2.72996 0.460938V6.67094C1.37996 7.08094 0.459961 8.33094 0.459961 9.75094V21.4809C0.459961 21.8009 0.719961 22.0609 1.03996 22.0609H6.62996C6.94996 22.0609 7.20996 21.8009 7.20996 21.4809V9.75094C7.20996 8.33094 6.28996 7.08094 4.93996 6.67094V0.460938H2.72996Z" stroke="#3E4559" stroke-width="0.9146" stroke-miterlimit="10" stroke-linecap="round" stroke-linejoin="round"/>
<path d="M2.72949 5.17188H4.92949" stroke="#3E4559" stroke-width="0.9146" stroke-miterlimit="10" stroke-linecap="round" stroke-linejoin="round"/>
<path d="M2.73047 2.48047H4.93047" stroke="#3E4559" stroke-width="0.9146" stroke-miterlimit="10" stroke-linecap="round" stroke-linejoin="round"/>
<path d="M7.20969 17.1609H2.99969C2.67969 17.1609 2.42969 16.9009 2.42969 16.5909V12.2009C2.42969 11.8809 2.68969 11.6309 2.99969 11.6309H7.19969" stroke="#3E4559" stroke-width="0.9146" stroke-miterlimit="10" stroke-linecap="round" stroke-linejoin="round"/>
<path d="M8.91992 6.52165C14.5499 2.35165 22.9899 3.20165 27.5499 8.57165" stroke="#3E4559" stroke-width="0.9146" stroke-miterlimit="10" stroke-linecap="round" stroke-linejoin="round"/>
<path d="M9.40039 16.5195C13.2204 16.5195 17.0504 16.5195 20.8704 16.5195" stroke="#3E4559" stroke-width="0.9146" stroke-miterlimit="10" stroke-linecap="round" stroke-linejoin="round"/>
<path d="M21.2404 21.0117C17.1304 21.0117 13.0104 21.0117 8.90039 21.0117" stroke="#3E4559" stroke-width="0.9146" stroke-miterlimit="10" stroke-linecap="round" stroke-linejoin="round"/>
<path d="M17.1406 2.46094V0.460938" stroke="#3E4559" stroke-width="0.9146" stroke-miterlimit="10" stroke-linecap="round" stroke-linejoin="round"/>
<path d="M15.7402 0.460938H18.5502" stroke="#3E4559" stroke-width="0.9146" stroke-miterlimit="10" stroke-linecap="round" stroke-linejoin="round"/>
<path d="M25.8707 21.0626C26.3007 21.2226 28.8607 22.1426 31.4307 20.7926C33.8407 19.5226 34.5607 17.1626 34.8107 16.3226C35.5207 13.9726 34.9607 11.9626 34.7107 11.2026C33.7907 11.1726 31.8607 11.2326 29.8207 12.3426C28.9607 12.8126 27.1407 13.8026 26.1607 16.0226C25.1607 18.2926 25.6807 20.4026 25.8707 21.0626Z" stroke="#F36F4F" stroke-width="0.9146" stroke-miterlimit="10" stroke-linecap="round" stroke-linejoin="round"/>
<path d="M31.0211 15.4141C30.9911 15.4641 30.9611 15.5341 30.9311 15.6041C29.5211 18.7541 26.7611 21.0741 23.4311 21.9741C23.3111 22.0041 23.2011 22.0341 23.1211 22.0641" stroke="#F36F4F" stroke-width="0.9146" stroke-miterlimit="10" stroke-linecap="round" stroke-linejoin="round"/>
<path d="M27.3806 12.3423C27.0306 11.3723 26.4206 10.7023 26.1506 10.4023C25.0006 9.14234 23.6006 8.77234 23.0606 8.65234C22.7106 9.19234 22.0706 10.3623 22.0106 11.9723C21.9906 12.6523 21.9406 14.0923 22.9106 15.4623C23.3706 16.1123 23.9306 16.5523 24.4406 16.8523" stroke="#F36F4F" stroke-width="0.9146" stroke-miterlimit="10" stroke-linecap="round" stroke-linejoin="round"/>
</g>
<defs>
<clipPath id="clip0_394_16941">
<rect width="35.62" height="22.51" fill="white"/>
</clipPath>
</defs>
</svg>
