<svg width="28" height="19" viewBox="0 0 28 19" fill="none" xmlns="http://www.w3.org/2000/svg">
<g clip-path="url(#clip0_472_17914)">
<path d="M24.8625 19H3.13745C1.40727 19 0 17.5703 0 15.8126V3.1874C0 1.42968 1.40727 0 3.13745 0H24.8625C26.5927 0 28 1.42968 28 3.1874V15.8126C28 17.5703 26.5927 19 24.8625 19ZM3.13745 0.94798C1.92225 0.94798 0.933124 1.95285 0.933124 3.1874V15.8126C0.933124 17.0472 1.92225 18.052 3.13745 18.052H24.8625C26.0778 18.052 27.0669 17.0472 27.0669 15.8126V3.1874C27.0669 1.95285 26.0778 0.94798 24.8625 0.94798H3.13745Z" fill="#010101"/>
<path d="M14.8127 16.0394H14.057C13.0469 16.0394 12.1002 15.6534 11.5245 15.0079C11.2126 14.6591 11.0221 14.2481 10.974 13.8212L10.6893 12.2139C10.6872 12.2001 10.6851 12.1852 10.6835 12.1709L10.2847 8.84364C10.2685 8.70913 10.3098 8.57355 10.3988 8.47253C10.4872 8.37098 10.6144 8.3125 10.7479 8.3125H14.3281C14.5861 8.3125 14.7949 8.52464 14.7949 8.78676C14.7949 9.04834 14.5861 9.26101 14.3281 9.26101H11.2749L11.6114 12.0656L11.8977 13.6846C11.928 13.9461 12.0337 14.1668 12.2164 14.3715C12.6193 14.8229 13.307 15.0919 14.058 15.0919H14.8137C15.0717 15.0919 15.2806 15.304 15.2806 15.5662C15.279 15.8272 15.0702 16.0394 14.8127 16.0394Z" fill="#F96E4D"/>
<path d="M18.6533 16.039H17.8887C17.6307 16.039 17.4219 15.8269 17.4219 15.5647C17.4219 15.3032 17.6307 15.0905 17.8887 15.0905H18.6533C19.7691 15.0905 20.7163 14.4833 20.8095 13.7087L21.1455 11.6511C21.147 11.6415 21.1491 11.6325 21.1512 11.6229L21.4333 9.25906H18.377C18.119 9.25906 17.9102 9.04692 17.9102 8.7848C17.9102 8.52322 18.119 8.31055 18.377 8.31055H21.9598C22.0933 8.31055 22.2204 8.3685 22.3089 8.47005C22.3973 8.5716 22.4392 8.70665 22.423 8.84169L22.0728 11.7781C22.0702 11.8021 22.0655 11.826 22.0592 11.8494L21.7332 13.8437C21.584 15.0868 20.2584 16.039 18.6533 16.039Z" fill="#F96E4D"/>
<path d="M22.0184 9.25948H18.377C18.119 9.25948 17.9102 9.04734 17.9102 8.78522C17.9102 8.52364 18.119 8.31097 18.377 8.31097H22.0184C22.0849 8.31097 22.1393 8.25567 22.1393 8.18815V6.75688C22.1393 6.68882 22.0849 6.63406 22.0184 6.63406H18.4267C18.1687 6.63406 17.9599 6.42192 17.9599 6.1598C17.9599 5.89822 18.1687 5.68555 18.4267 5.68555H22.0184C22.5998 5.68555 23.073 6.16565 23.073 6.75688V8.18815C23.073 8.77937 22.5998 9.25948 22.0184 9.25948Z" fill="#F96E4D"/>
<path d="M14.3274 9.25948H10.6891C10.1092 9.25948 9.6377 8.77937 9.6377 8.18815V6.75688C9.6377 6.16618 10.1092 5.68555 10.6891 5.68555H14.2777C14.5357 5.68555 14.7445 5.89769 14.7445 6.1598C14.7445 6.42139 14.5357 6.63406 14.2777 6.63406H10.6891C10.6247 6.63406 10.5708 6.69042 10.5708 6.75688V8.18815C10.5708 8.25461 10.6252 8.31097 10.6891 8.31097H14.3274C14.5854 8.31097 14.7942 8.52311 14.7942 8.78522C14.7942 9.04734 14.5854 9.25948 14.3274 9.25948Z" fill="#F96E4D"/>
<path d="M17.2751 16.4357H15.4271C14.8342 16.4357 14.3841 16.1092 14.3569 15.6589L14.3061 14.8098L13.753 6.36358C13.7482 6.28968 13.7519 6.21737 13.7645 6.14293C13.8492 5.59531 14.3778 5.19336 15.0205 5.19336H17.6812C18.3244 5.19336 18.8529 5.59531 18.9388 6.14931C18.9498 6.21843 18.9534 6.28914 18.9492 6.36252L18.7242 10.1045L18.3448 15.6589C18.3186 16.1087 17.8691 16.4357 17.2751 16.4357ZM15.2806 15.468C15.3151 15.4786 15.3649 15.4877 15.4271 15.4877H17.2751C17.3379 15.4877 17.3871 15.4781 17.4216 15.468L17.4645 14.7561C17.4645 14.7545 17.4645 14.7529 17.4645 14.7513L18.0177 6.3051C18.0083 6.24023 17.8889 6.14081 17.6812 6.14081H15.0205C14.8159 6.14081 14.6934 6.24129 14.685 6.29606L14.909 10.0486L15.2806 15.468Z" fill="#F96E4D"/>
<path d="M13.7403 6.63503C13.7272 6.63503 13.7146 6.63449 13.701 6.63343C11.4088 6.44096 11.3339 5.01926 11.3659 4.58754C11.4475 3.47421 12.4387 2.48795 13.4116 2.54962C14.9408 2.6533 16.5569 4.98364 16.7364 5.24894C16.8819 5.4648 16.828 5.75989 16.6161 5.90822C16.4031 6.0555 16.1131 6.0018 15.9671 5.78594C15.3878 4.92994 14.1652 3.5513 13.3499 3.49547C12.9019 3.46038 12.3393 4.08457 12.2974 4.65825C12.2399 5.44141 13.2012 5.63973 13.7795 5.68864C14.0365 5.71044 14.227 5.93959 14.2061 6.20011C14.1851 6.44734 13.9805 6.63503 13.7403 6.63503Z" fill="#F96E4D"/>
<path d="M18.9112 6.63408C18.671 6.63408 18.4669 6.4464 18.4465 6.19917C18.425 5.93865 18.616 5.7095 18.873 5.6877C19.4513 5.63878 20.4127 5.44047 20.3551 4.65731C20.3127 4.08363 19.7402 3.45944 19.3027 3.49453C18.4873 3.54983 17.2642 4.92846 16.6854 5.78499C16.5394 5.99979 16.2495 6.05456 16.0365 5.90728C15.824 5.75894 15.7701 5.46386 15.9161 5.248C16.0951 4.98269 17.7112 2.65236 19.2409 2.54868C20.2107 2.47584 21.2045 3.47326 21.2867 4.5866C21.3186 5.01832 21.2438 6.43949 18.9515 6.63249C18.9369 6.63355 18.9238 6.63408 18.9112 6.63408Z" fill="#F96E4D"/>
<path d="M5.91507 2.13362C5.65706 2.13362 5.44824 1.92148 5.44824 1.65936V0.474256C5.44824 0.212671 5.65706 0 5.91507 0C6.17307 0 6.38189 0.212139 6.38189 0.474256V1.65936C6.38137 1.92095 6.17255 2.13362 5.91507 2.13362Z" fill="#010101"/>
<path d="M5.91507 15.5751C5.65706 15.5751 5.44824 15.363 5.44824 15.1009V12.8609C5.44824 12.5993 5.65706 12.3867 5.91507 12.3867C6.17307 12.3867 6.38189 12.5988 6.38189 12.8609V15.1009C6.38137 15.363 6.17255 15.5751 5.91507 15.5751ZM5.91507 11.0947C5.65706 11.0947 5.44824 10.8825 5.44824 10.6204V8.37995C5.44824 8.11836 5.65706 7.90569 5.91507 7.90569C6.17307 7.90569 6.38189 8.11783 6.38189 8.37995V10.6204C6.38137 10.8825 6.17255 11.0947 5.91507 11.0947ZM5.91507 6.61425C5.65706 6.61425 5.44824 6.40211 5.44824 6.13999V3.90004C5.44824 3.63845 5.65706 3.42578 5.91507 3.42578C6.17307 3.42578 6.38189 3.63792 6.38189 3.90004V6.14052C6.38137 6.40211 6.17255 6.61425 5.91507 6.61425Z" fill="#010101"/>
<path d="M5.91507 19.0008C5.65706 19.0008 5.44824 18.7887 5.44824 18.5266V17.3414C5.44824 17.0799 5.65706 16.8672 5.91507 16.8672C6.17307 16.8672 6.38189 17.0793 6.38189 17.3414V18.5266C6.38137 18.7887 6.17255 19.0008 5.91507 19.0008Z" fill="#010101"/>
</g>
<defs>
<clipPath id="clip0_472_17914">
<rect width="28" height="19" fill="white"/>
</clipPath>
</defs>
</svg>
