<svg width="29" height="27" viewBox="0 0 29 27" fill="none" xmlns="http://www.w3.org/2000/svg">
<g clip-path="url(#clip0_285_10494)">
<path d="M12.4055 13.9786L13.9119 16.5515C13.9783 16.665 14.089 16.745 14.2169 16.7729L17.1298 17.4107C17.4805 17.4879 17.619 17.9136 17.3805 18.1822L15.399 20.41C15.3119 20.5079 15.2698 20.6379 15.2826 20.7686L15.5762 23.7357C15.6119 24.0936 15.249 24.3565 14.9198 24.2129L12.1883 23.0165C12.0683 22.9636 11.9312 22.9636 11.8112 23.0165L9.07975 24.2129C8.75047 24.3572 8.38832 24.0936 8.42332 23.7357L8.7169 20.7686C8.72975 20.6379 8.68761 20.5079 8.60047 20.41L6.61904 18.1822C6.38047 17.9136 6.51904 17.4872 6.86975 17.4107L9.78261 16.7729C9.91047 16.745 10.0212 16.6643 10.0876 16.5515L11.594 13.9786C11.7755 13.6686 12.224 13.6686 12.4055 13.9786Z" stroke="#222831" stroke-miterlimit="10" stroke-linecap="round" stroke-linejoin="round"/>
<path d="M27.5 26.5H1.5C0.947857 26.5 0.5 26.0521 0.5 25.5V22.16C0.5 21.775 0.721429 21.4257 1.06929 21.2607C1.91429 20.8607 2.5 19.9986 2.5 19C2.5 18.0014 1.91429 17.1393 1.06929 16.7393C0.721429 16.575 0.5 16.225 0.5 15.84V12.5C0.5 11.9479 0.947857 11.5 1.5 11.5H27.5C28.0521 11.5 28.5 11.9479 28.5 12.5V15.84C28.5 16.225 28.2786 16.5743 27.9307 16.7393C27.0857 17.1393 26.5 18.0014 26.5 19C26.5 19.9986 27.0857 20.8607 27.9307 21.2607C28.2786 21.425 28.5 21.775 28.5 22.16V25.5C28.5 26.0521 28.0521 26.5 27.5 26.5Z" stroke="#222831" stroke-miterlimit="10" stroke-linecap="round" stroke-linejoin="round"/>
<path d="M22.5 13.5V14.5" stroke="#222831" stroke-miterlimit="10" stroke-linecap="round" stroke-linejoin="round"/>
<path d="M22.5 16.5V18" stroke="#222831" stroke-miterlimit="10" stroke-linecap="round" stroke-linejoin="round"/>
<path d="M22.5 20V21.5" stroke="#222831" stroke-miterlimit="10" stroke-linecap="round" stroke-linejoin="round"/>
<path d="M22.5 23.5V24.5" stroke="#222831" stroke-miterlimit="10" stroke-linecap="round" stroke-linejoin="round"/>
<path d="M6.16504 9.75818L21.97 0.633177C22.45 0.358177 23.06 0.523177 23.335 0.998177L25.005 3.89318C25.2 4.22318 25.18 4.63818 24.965 4.95318C24.43 5.72318 24.355 6.76318 24.855 7.62818C25.355 8.49318 26.29 8.94818 27.225 8.87318C27.605 8.83818 27.975 9.03318 28.165 9.36318L28.5 9.94318" fill="#F96E4D"/>
<path d="M18.6396 4.86523L19.1396 5.73095" stroke="#222831" stroke-miterlimit="10" stroke-linecap="round" stroke-linejoin="round"/>
<path d="M20.1396 7.46484L20.8896 8.76413" stroke="#222831" stroke-miterlimit="10" stroke-linecap="round" stroke-linejoin="round"/>
</g>
<defs>
<clipPath id="clip0_285_10494">
<rect width="29" height="27" fill="white"/>
</clipPath>
</defs>
</svg>
