<svg width="34" height="19" viewBox="0 0 34 19" fill="none" xmlns="http://www.w3.org/2000/svg">
<g clip-path="url(#clip0_283_10196)">
<path d="M31.7902 6.24609L31.1553 6.9476C32.387 8.11392 33.0651 9.66132 33.0651 11.3056C33.0651 12.9493 32.387 14.4974 31.1553 15.6637L31.7902 16.3652C33.2146 15.0162 33.9997 13.219 33.9997 11.3056C33.9997 9.39232 33.2153 7.5957 31.7902 6.24609Z" fill="#404040"/>
<path d="M30.1954 7.6875L29.5605 8.38901C30.3856 9.17029 30.8394 10.2054 30.8394 11.3051C30.8394 12.4049 30.3849 13.44 29.5605 14.2213L30.1954 14.9228C31.2138 13.9589 31.774 12.6739 31.774 11.3051C31.774 9.93641 31.2138 8.65207 30.1954 7.6875Z" fill="#404040"/>
<path d="M28.629 9.13672L27.9941 9.83822C28.4105 10.2325 28.6393 10.7533 28.6393 11.3052C28.6393 11.857 28.4105 12.3779 27.9941 12.7722L28.629 13.4737C29.2381 12.8968 29.574 12.1267 29.574 11.3052C29.574 10.4837 29.2388 9.71362 28.629 9.13672Z" fill="#404040"/>
<path d="M0 2.5C0 1.39543 0.895431 0.5 2 0.5H21C22.1046 0.5 23 1.39543 23 2.5V4.25H4.5L4 15.5H2C0.895431 15.5 0 14.6046 0 13.5V2.5Z" fill="#F96E4D"/>
<path d="M24.518 3.6107H22.8175C16.5637 3.61069 11.0113 3.60961 5.21347 3.60941C4.32982 3.60938 3.61328 4.32551 3.61328 5.20917C3.61328 8.49321 3.61328 13.4572 3.61328 13.4572C3.61328 15.5466 3.61357 14.4995 3.61357 15.3893V17.0343C3.61357 18.1182 4.47535 19.0003 5.53565 19.0003H24.5187C25.5783 19.0003 26.4407 18.1188 26.4407 17.0343V5.57611C26.4401 4.4922 25.5777 3.6107 24.518 3.6107ZM25.5048 17.0336C25.5048 17.5901 25.062 18.043 24.518 18.043H5.53501C4.991 18.043 4.54818 17.5901 4.54818 17.0336V7.92523H25.5048V17.0336ZM25.5048 6.96923H4.54818V5.57611C4.54818 5.01965 4.991 4.5667 5.53501 4.5667H24.518C25.062 4.5667 25.5048 5.01965 25.5048 5.57611V6.96923Z" fill="#404040"/>
<path d="M9.74453 14.0879H6.96582V15.0439H9.74453V14.0879Z" fill="#404040"/>
<path d="M14.1918 14.0879H11.4131V15.0439H14.1918V14.0879Z" fill="#404040"/>
<path d="M18.6391 14.0879H15.8604V15.0439H18.6391V14.0879Z" fill="#404040"/>
<path d="M23.0873 14.0879H20.3086V15.0439H23.0873V14.0879Z" fill="#404040"/>
</g>
<defs>
<clipPath id="clip0_283_10196">
<rect width="34" height="19" fill="white"/>
</clipPath>
</defs>
</svg>
