<svg width="34" height="23" viewBox="0 0 34 23" fill="none" xmlns="http://www.w3.org/2000/svg">
<g clip-path="url(#clip0_289_24330)">
<path d="M21.6501 8.16047C20.8301 8.93047 19.5501 8.91047 18.7501 8.11047C17.9401 7.30047 17.9401 5.97047 18.7501 5.16047C18.8101 5.10047 18.8801 5.04047 18.9501 4.98047" stroke="#F36F4F" stroke-width="0.9146" stroke-miterlimit="10" stroke-linecap="round" stroke-linejoin="round"/>
<path d="M11.55 14.5309L8.83996 13.3709L6.45996 12.3509C8.26996 6.90094 12.48 2.58094 17.89 0.630937L18.36 0.460938L19.38 2.84094L20.11 4.55094L21.65 8.16094L27.24 21.2309L24.38 20.0109" stroke="#3E4559" stroke-width="0.9146" stroke-miterlimit="10" stroke-linecap="round" stroke-linejoin="round"/>
<path d="M17.8594 17.2305L20.1494 18.2105L22.2094 19.0905" stroke="#3E4559" stroke-width="0.9146" stroke-miterlimit="10" stroke-linecap="round" stroke-linejoin="round"/>
<path d="M19.3701 2.8418C17.4101 3.6218 15.6301 4.7018 14.0601 6.0518C11.7701 8.0118 9.97008 10.5218 8.83008 13.3718" stroke="#3E4559" stroke-width="0.9146" stroke-miterlimit="10" stroke-linecap="round" stroke-linejoin="round"/>
<path d="M11.4804 8.76113C12.0404 8.74113 12.6004 8.94113 13.0204 9.37113C13.8404 10.1811 13.8404 11.5111 13.0204 12.3211C12.3204 13.0211 11.2404 13.1211 10.4404 12.6111" stroke="#3E4559" stroke-width="0.9146" stroke-miterlimit="10" stroke-linecap="round" stroke-linejoin="round"/>
<path d="M23.9903 13.6523C23.7403 13.7523 23.5103 13.9023 23.3103 14.1023C22.4903 14.9223 22.4903 16.2423 23.3103 17.0523C23.6103 17.3523 23.9903 17.5423 24.3803 17.6223" stroke="#3E4559" stroke-width="0.9146" stroke-miterlimit="10" stroke-linecap="round" stroke-linejoin="round"/>
<path d="M17.8605 17.2312V19.3713C17.8605 19.6613 17.7405 19.9213 17.5505 20.1113C17.3605 20.3013 17.1005 20.4213 16.8105 20.4213C16.2305 20.4213 15.7605 19.9513 15.7605 19.3713V17.8112C15.7605 17.5212 15.6405 17.2612 15.4505 17.0712C15.2605 16.8712 15.0005 16.7613 14.7105 16.7613C14.1305 16.7613 13.6605 17.2312 13.6605 17.8112C13.6605 18.1012 13.5405 18.3612 13.3505 18.5512C13.1605 18.7412 12.9005 18.8613 12.6105 18.8613C12.0305 18.8613 11.5605 18.3912 11.5605 17.8112V14.5312" stroke="#3E4559" stroke-width="0.9146" stroke-miterlimit="10" stroke-linecap="round" stroke-linejoin="round"/>
<path d="M24.37 20.0118V20.9818C24.37 21.5818 23.89 22.0618 23.29 22.0618C22.69 22.0618 22.21 21.5818 22.21 20.9818V19.0918" stroke="#3E4559" stroke-width="0.9146" stroke-miterlimit="10" stroke-linecap="round" stroke-linejoin="round"/>
<path d="M18.02 15.5419C19.1577 15.5419 20.08 14.6196 20.08 13.4819C20.08 12.3442 19.1577 11.4219 18.02 11.4219C16.8823 11.4219 15.96 12.3442 15.96 13.4819C15.96 14.6196 16.8823 15.5419 18.02 15.5419Z" stroke="#F36F4F" stroke-width="0.9146" stroke-miterlimit="10" stroke-linecap="round" stroke-linejoin="round"/>
</g>
<defs>
<clipPath id="clip0_289_24330">
<rect width="21.69" height="22.51" fill="white" transform="translate(6)"/>
</clipPath>
</defs>
</svg>
