<svg width="23" height="23" viewBox="0 0 23 23" fill="none" xmlns="http://www.w3.org/2000/svg">
<g clip-path="url(#clip0_339_15906)">
<path d="M22.0809 9.95117C22.182 10.3599 22.0607 11.1569 21.8789 11.5349C21.7274 11.8414 21.4143 12.0867 21.0809 12.0458C20.8688 12.0151 20.6971 11.8925 20.5153 11.7801C19.6466 11.2488 18.5052 11.1569 17.5759 11.5553C16.7779 11.8925 16.2022 12.3319 15.2931 12.3319C13.5254 12.3319 13.5254 11.3203 11.7577 11.3203H11.7779C10.0102 11.3203 10.0102 12.3319 8.24256 12.3319C6.47488 12.3319 6.47488 11.3203 4.70721 11.3203C4.02034 11.3203 3.50519 11.5962 2.86882 11.8619C2.70721 11.9334 2.54559 11.9947 2.37387 12.0049C1.99004 12.0151 1.6668 11.6882 1.54559 11.3203C1.43448 10.9832 1.36377 10.2986 1.45468 9.95117" stroke="#F36F4F" stroke-width="0.9146" stroke-miterlimit="10" stroke-linecap="round" stroke-linejoin="round"/>
<path d="M21.2321 9.95076C21.9391 9.95076 22.4947 9.31726 22.3937 8.61224C21.7472 4.01429 17.8381 0.46875 13.1109 0.46875H10.3836C5.65632 0.46875 1.74723 4.01429 1.10076 8.61224C0.999753 9.31726 1.55531 9.95076 2.26238 9.95076H21.2321Z" stroke="#404040" stroke-width="0.9146" stroke-miterlimit="10" stroke-linecap="round" stroke-linejoin="round"/>
<path d="M10.9492 17.3906H21.8582C22.232 17.3906 22.535 17.6972 22.535 18.0752V19.4852C22.535 21.1712 21.1815 22.5403 19.5148 22.5403H4.02997C2.3633 22.5403 1.00977 21.1712 1.00977 19.4852V18.0752C1.00977 17.6972 1.3128 17.3906 1.68653 17.3906H4.84815" stroke="#404040" stroke-width="0.9146" stroke-miterlimit="10" stroke-linecap="round" stroke-linejoin="round"/>
<path d="M5.12089 7.49855L4.33301 7.08984" stroke="#F36F4F" stroke-width="0.9146" stroke-miterlimit="10" stroke-linecap="round" stroke-linejoin="round"/>
<path d="M9.66699 4.32087L10.0609 3.51367" stroke="#F36F4F" stroke-width="0.9146" stroke-miterlimit="10" stroke-linecap="round" stroke-linejoin="round"/>
<path d="M13.6062 7.0889L13.2324 6.27148" stroke="#F36F4F" stroke-width="0.9146" stroke-miterlimit="10" stroke-linecap="round" stroke-linejoin="round"/>
<path d="M17.6465 4.59669L18.2222 3.91211" stroke="#F36F4F" stroke-width="0.9146" stroke-miterlimit="10" stroke-linecap="round" stroke-linejoin="round"/>
<path d="M2.07031 17.4007V16.2461" stroke="#404040" stroke-width="0.9146" stroke-miterlimit="10" stroke-linecap="round" stroke-linejoin="round"/>
<path d="M21.1113 15.1523V16.3274" stroke="#404040" stroke-width="0.9146" stroke-miterlimit="10" stroke-linecap="round" stroke-linejoin="round"/>
<path d="M22.0809 12.4351C22.3638 12.7212 22.5456 13.1197 22.5456 13.5591C22.5456 13.9984 22.3739 14.3969 22.0809 14.683C21.7981 14.9691 21.4042 15.153 20.9698 15.153C19.2223 15.1735 17.4648 15.1837 15.7173 15.2041C15.0809 15.2143 14.4547 15.2143 13.8183 15.2245C13.5355 15.2245 12.1112 15.153 11.6668 15.1939C11.1516 15.2348 10.6264 15.4085 10.2526 15.7661C9.56577 16.42 9.7678 16.89 9.7678 17.2579C9.7678 17.8607 9.19204 18.6985 8.20214 18.6985C7.34355 18.6985 6.66679 17.9527 6.66679 17.0842V17.2681V16.3383C6.66679 16.3076 6.66679 16.277 6.66679 16.2463C6.62638 15.623 6.09103 15.1632 5.47487 15.1632H2.08093C1.24254 15.1632 0.525372 14.5195 0.464766 13.6715C0.444564 13.3751 0.50517 13.0993 0.626382 12.854C0.737493 12.6395 0.889008 12.4555 1.07083 12.3125" stroke="#404040" stroke-width="0.9146" stroke-miterlimit="10" stroke-linecap="round" stroke-linejoin="round"/>
</g>
<defs>
<clipPath id="clip0_339_15906">
<rect width="23" height="23" fill="white"/>
</clipPath>
</defs>
</svg>
