<svg width="31" height="23" viewBox="0 0 31 23" fill="none" xmlns="http://www.w3.org/2000/svg">
<path d="M19.1731 0H11.2115C10.6252 0.000702322 10.0631 0.233929 9.64852 0.64852C9.23393 1.06311 9.0007 1.62522 9 2.21154V20.7885C9 22.0075 9.99165 23 11.2115 23H19.1731C20.393 23 21.3846 22.0075 21.3846 20.7885V2.21154C21.3846 0.992538 20.393 0 19.1731 0ZM11.2115 0.884615H19.1731C19.9047 0.884615 20.5 1.47996 20.5 2.21154V3H9.88462V2.21154C9.88462 1.47996 10.48 0.884615 11.2115 0.884615ZM20.5 18H9.88462V4H20.5V18ZM19.1731 22.1154H11.2115C10.48 22.1154 9.88462 21.52 9.88462 20.7885V19H20.5V20.7885C20.5 21.52 19.9047 22.1154 19.1731 22.1154Z" fill="#404040"/>
<path d="M14.3075 2.45493H16.0768C16.1941 2.45493 16.3066 2.40833 16.3895 2.32538C16.4725 2.24243 16.5191 2.12993 16.5191 2.01262C16.5191 1.89531 16.4725 1.78281 16.3895 1.69986C16.3066 1.61691 16.1941 1.57031 16.0768 1.57031H14.3075C14.1902 1.57031 14.0777 1.61691 13.9948 1.69986C13.9118 1.78281 13.8652 1.89531 13.8652 2.01262C13.8652 2.12993 13.9118 2.24243 13.9948 2.32538C14.0777 2.40833 14.1902 2.45493 14.3075 2.45493Z" fill="#404040"/>
<path d="M15.1922 21.2302C15.6808 21.2302 16.0768 20.8341 16.0768 20.3456C16.0768 19.857 15.6808 19.4609 15.1922 19.4609C14.7037 19.4609 14.3076 19.857 14.3076 20.3456C14.3076 20.8341 14.7037 21.2302 15.1922 21.2302Z" fill="#404040"/>
<path d="M17.8457 10C18.241 10 18.5645 10.2492 18.5645 10.5538V16.5352C18.5645 16.8398 18.241 17.089 17.8457 17.089C17.4504 17.089 17.127 16.8398 17.127 16.5352V10.5538C17.127 10.2492 17.4504 10 17.8457 10Z" fill="#404040"/>
<path d="M14.9707 11.4082C15.366 11.4082 15.6895 11.6588 15.6895 11.965V16.5311C15.6895 16.8374 15.366 17.088 14.9707 17.088C14.5754 17.088 14.252 16.8374 14.252 16.5311V11.965C14.252 11.6588 14.5754 11.4082 14.9707 11.4082Z" fill="#404040"/>
<path d="M12.0957 12.8613C12.491 12.8613 12.8145 13.1117 12.8145 13.4176V16.5328C12.8145 16.8388 12.491 17.0891 12.0957 17.0891C11.7004 17.0891 11.377 16.8388 11.377 16.5328V13.4176C11.377 13.1117 11.7004 12.8613 12.0957 12.8613Z" fill="#404040"/>
<path d="M11.8866 9.9273C11.8113 9.92695 11.7376 9.90592 11.6734 9.86651C11.6092 9.8271 11.5571 9.77082 11.5228 9.70381C11.4884 9.63681 11.4732 9.56165 11.4786 9.48655C11.4841 9.41145 11.5101 9.33929 11.5537 9.27795L13.6086 6.4011C13.6676 6.31803 13.7554 6.25984 13.8549 6.23782C13.9543 6.2158 14.0585 6.23151 14.147 6.28192L16.6663 7.72445L18.1047 5.20105C18.1592 5.10622 18.2492 5.03692 18.3548 5.00841C18.4603 4.97989 18.5729 4.99449 18.6678 5.04898C18.7626 5.10348 18.8319 5.19342 18.8604 5.29901C18.8889 5.4046 18.8743 5.5172 18.8198 5.61202L17.1759 8.48887C17.1491 8.53597 17.1132 8.57728 17.0703 8.61044C17.0274 8.6436 16.9784 8.66795 16.926 8.68208C16.8737 8.69622 16.8191 8.69986 16.7653 8.6928C16.7116 8.68573 16.6598 8.66811 16.6129 8.64093L14.0607 7.18196L12.2195 9.75469C12.1817 9.8078 12.1318 9.85116 12.0739 9.88117C12.016 9.91119 11.9518 9.927 11.8866 9.9273Z" fill="#F96E4D"/>
<path d="M18.4616 6.2279C18.9156 6.2279 19.2836 5.8599 19.2836 5.40594C19.2836 4.95199 18.9156 4.58398 18.4616 4.58398C18.0077 4.58398 17.6396 4.95199 17.6396 5.40594C17.6396 5.8599 18.0077 6.2279 18.4616 6.2279Z" fill="#F96E4D"/>
<path d="M16.8181 9.10485C17.272 9.10485 17.64 8.73685 17.64 8.28289C17.64 7.82894 17.272 7.46094 16.8181 7.46094C16.3641 7.46094 15.9961 7.82894 15.9961 8.28289C15.9961 8.73685 16.3641 9.10485 16.8181 9.10485Z" fill="#F96E4D"/>
<path d="M13.9411 7.46032C14.3951 7.46032 14.7631 7.09232 14.7631 6.63836C14.7631 6.18441 14.3951 5.81641 13.9411 5.81641C13.4871 5.81641 13.1191 6.18441 13.1191 6.63836C13.1191 7.09232 13.4871 7.46032 13.9411 7.46032Z" fill="#F96E4D"/>
<path d="M11.8864 10.3373C12.3404 10.3373 12.7084 9.96927 12.7084 9.51532C12.7084 9.06136 12.3404 8.69336 11.8864 8.69336C11.4325 8.69336 11.0645 9.06136 11.0645 9.51532C11.0645 9.96927 11.4325 10.3373 11.8864 10.3373Z" fill="#F96E4D"/>
</svg>
