<svg width="31" height="23" viewBox="0 0 31 23" fill="none" xmlns="http://www.w3.org/2000/svg">
<g clip-path="url(#clip0_281_10145)">
<path d="M28.558 22.8033H1.30458C0.693254 22.8033 0.198242 22.3132 0.198242 21.7094V1.28915C0.198242 0.685383 0.693915 0.195312 1.30458 0.195312H29.6947C30.306 0.195312 30.8011 0.685383 30.8011 1.28915V21.7088C30.8011 22.3132 30.3054 22.8026 29.6947 22.8026H26.9454" stroke="#404040" stroke-miterlimit="10" stroke-linecap="round" stroke-linejoin="round"/>
<path d="M27.2258 20.7008H5.65039C5.09811 20.7008 4.65039 20.2531 4.65039 19.7008V3.30078C4.65039 2.7485 5.09811 2.30078 5.65039 2.30078H27.6754C28.2277 2.30078 28.6754 2.7485 28.6754 3.30078V19.7008C28.6754 20.2531 28.2277 20.7008 27.6754 20.7008H26.4069" stroke="#404040" stroke-miterlimit="10" stroke-linecap="round" stroke-linejoin="round"/>
<path d="M1.85059 13.2266V9.77262C1.85059 9.40344 2.15328 9.10352 2.52734 9.10352C2.90075 9.10352 3.2041 9.40278 3.2041 9.77262V13.2266C3.2041 13.5958 2.90141 13.8958 2.52734 13.8958C2.15328 13.8958 1.85059 13.5965 1.85059 13.2266Z" fill="#404040"/>
<path d="M15.7151 10.2896H9.43262C8.88033 10.2896 8.43262 9.84187 8.43262 9.28958V5.15625C8.43262 4.60397 8.88033 4.15625 9.43262 4.15625H15.1826C15.7349 4.15625 16.1826 4.60397 16.1826 5.15625V9.55804C16.1826 9.96206 15.8551 10.2896 15.4511 10.2896" fill="#F96E4D"/>
<path d="M15.7151 10.2896H9.43262C8.88033 10.2896 8.43262 9.84187 8.43262 9.28958V5.15625C8.43262 4.60397 8.88033 4.15625 9.43262 4.15625H15.1826C15.7349 4.15625 16.1826 4.60397 16.1826 5.15625V9.55804C16.1826 9.96206 15.8551 10.2896 15.4511 10.2896" stroke="#F96E4D" stroke-miterlimit="10" stroke-linecap="round" stroke-linejoin="round"/>
<path d="M25.7894 10.2896H19.5068C18.9546 10.2896 18.5068 9.84187 18.5068 9.28958V5.15625C18.5068 4.60397 18.9546 4.15625 19.5068 4.15625H25.2568C25.8091 4.15625 26.2568 4.60397 26.2568 5.15625V9.55726C26.2568 9.96171 25.929 10.2896 25.5245 10.2896" stroke="#404040" stroke-miterlimit="10" stroke-linecap="round" stroke-linejoin="round"/>
<path d="M15.7151 18.7232H9.43262C8.88033 18.7232 8.43262 18.2755 8.43262 17.7232V13.5898C8.43262 13.0376 8.88033 12.5898 9.43262 12.5898H15.1826C15.7349 12.5898 16.1826 13.0376 16.1826 13.5898V17.9916C16.1826 18.3957 15.8551 18.7232 15.4511 18.7232" stroke="#404040" stroke-miterlimit="10" stroke-linecap="round" stroke-linejoin="round"/>
<path d="M25.7894 18.7232H19.5068C18.9546 18.7232 18.5068 18.2755 18.5068 17.7232V13.5898C18.5068 13.0376 18.9546 12.5898 19.5068 12.5898H25.2568C25.8091 12.5898 26.2568 13.0376 26.2568 13.5898V17.9909C26.2568 18.3953 25.929 18.7232 25.5245 18.7232" fill="#F96E4D"/>
<path d="M25.7894 18.7232H19.5068C18.9546 18.7232 18.5068 18.2755 18.5068 17.7232V13.5898C18.5068 13.0376 18.9546 12.5898 19.5068 12.5898H25.2568C25.8091 12.5898 26.2568 13.0376 26.2568 13.5898V17.9909C26.2568 18.3953 25.929 18.7232 25.5245 18.7232" stroke="#F96E4D" stroke-miterlimit="10" stroke-linecap="round" stroke-linejoin="round"/>
</g>
<defs>
<clipPath id="clip0_281_10145">
<rect width="31" height="23" fill="white"/>
</clipPath>
</defs>
</svg>
