<svg width="24" height="23" viewBox="0 0 24 23" fill="none" xmlns="http://www.w3.org/2000/svg">
<path d="M11.8708 17.0639C12.2806 17.0639 12.6128 16.7318 12.6128 16.322C12.6128 15.9123 12.2806 15.5801 11.8708 15.5801C11.4611 15.5801 11.1289 15.9123 11.1289 16.322C11.1289 16.7318 11.4611 17.0639 11.8708 17.0639Z" fill="#404040"/>
<path d="M21.5161 0H2.22581C0.998645 0 0 0.998645 0 2.22581V17.0645C0 18.2917 0.998645 19.2903 2.22581 19.2903H10.9899V21.5161H4.82258C4.62581 21.5161 4.43709 21.5943 4.29795 21.7334C4.15881 21.8726 4.08065 22.0613 4.08065 22.2581C4.08065 22.4548 4.15881 22.6435 4.29795 22.7827C4.43709 22.9218 4.62581 23 4.82258 23H18.9194C19.1161 23 19.3048 22.9218 19.444 22.7827C19.5831 22.6435 19.6613 22.4548 19.6613 22.2581C19.6613 22.0613 19.5831 21.8726 19.444 21.7334C19.3048 21.5943 19.1161 21.5161 18.9194 21.5161H12.752V19.2903H21.5161C22.7433 19.2903 23.7419 18.2917 23.7419 17.0645V2.22581C23.7419 0.998645 22.7433 0 21.5161 0ZM1.48387 2.22581C1.48387 1.817 1.81626 1.48387 2.22581 1.48387H21.5161C21.9257 1.48387 22.2581 1.817 22.2581 2.22581V16.9301C22.2581 17.4824 21.8104 17.9301 21.2581 17.9301H2.48387C1.93159 17.9301 1.48387 17.4824 1.48387 16.9301V2.22581Z" fill="#404040"/>
<path d="M8.5 11C11 11.5 12.5 11 14 11C15.2 11 16.5 10.6667 17 10.5C17 11.5 15.2 13 14 13C13.5 13 13.8333 13.6667 14.5 14L12.5 14.5C11.3333 14.5 9 14.4 9 14C9 13.6 9.33333 13.1667 9.5 13C8.83333 12.8333 7.4 12.4 7 12C6.61644 11.6164 6.20603 10.3244 6.02782 9.651C6.01783 9.62173 6.01073 9.59397 6.0062 9.56795C6.01297 9.59442 6.02018 9.62214 6.02782 9.651C6.1562 10.0273 6.76122 10.6522 8.5 11Z" fill="#F96E4D"/>
<path d="M10.4394 13.2417C10.8028 13.276 11.1955 13.2941 11.6203 13.2941C17.6538 13.2941 17.2411 9.5918 17.2411 9.5918" stroke="#3C3C3C" stroke-width="0.5" stroke-miterlimit="10" stroke-linecap="round" stroke-linejoin="round"/>
<path d="M6.00592 9.5918C6.00592 9.5918 5.6922 12.3637 9.51563 13.1106" stroke="#3C3C3C" stroke-width="0.5" stroke-miterlimit="10" stroke-linecap="round" stroke-linejoin="round"/>
<path d="M6.59731 8.79883C6.2191 9.03793 6.00629 9.30776 6.00629 9.59334C6.00629 10.575 8.52097 11.3703 11.6233 11.3703C14.7256 11.3703 17.2402 10.5746 17.2402 9.59334C17.2402 9.32824 17.0566 9.07653 16.7277 8.85082" stroke="#3C3C3C" stroke-width="0.5" stroke-miterlimit="10" stroke-linecap="round" stroke-linejoin="round"/>
<path d="M13.7299 13.1113L14.2868 13.6896C14.4624 13.872 14.374 14.1847 14.1309 14.2379C13.398 14.3982 12.5399 14.4904 11.623 14.4904C10.7057 14.4904 9.84805 14.3982 9.11515 14.2379C8.87199 14.1847 8.7836 13.872 8.95924 13.6896L9.51536 13.1121" stroke="#3C3C3C" stroke-width="0.5" stroke-miterlimit="10" stroke-linecap="round" stroke-linejoin="round"/>
<path d="M11.9761 7.99135C12.1169 7.72625 12.1631 7.4064 12.0793 7.09127C11.9094 6.45039 11.2709 6.07421 10.6537 6.25068C10.5775 6.27274 10.505 6.30188 10.4371 6.33773C10.4439 6.2101 10.4367 6.08051 10.4022 5.95052C10.2319 5.30963 9.59383 4.93345 8.97663 5.10992C8.35944 5.28679 7.99716 5.94934 8.16711 6.59022C8.20125 6.71903 8.25853 6.83366 8.32643 6.93844C8.25967 6.94514 8.1929 6.95459 8.12614 6.97389C7.50894 7.15076 7.14667 7.81331 7.31661 8.45419C7.40007 8.76932 7.59771 9.01906 7.8496 9.17189C7.62389 9.32552 7.45811 9.55398 7.37731 9.81475" stroke="#3C3C3C" stroke-width="0.5" stroke-miterlimit="10" stroke-linecap="round" stroke-linejoin="round"/>
<path d="M10.46 10.4251L9.62426 7.27734" stroke="#3C3C3C" stroke-width="0.5" stroke-miterlimit="10" stroke-linecap="round" stroke-linejoin="round"/>
<path d="M9.96289 8.55195L9.32825 8.17773" stroke="#3C3C3C" stroke-width="0.5" stroke-miterlimit="10" stroke-linecap="round" stroke-linejoin="round"/>
<path d="M10.3299 9.9384L10.9531 8.79883" stroke="#3C3C3C" stroke-width="0.5" stroke-miterlimit="10" stroke-linecap="round" stroke-linejoin="round"/>
<path d="M11.5599 5.61812C11.7006 5.51137 11.8717 5.44874 12.0508 5.44283C11.9464 5.24194 11.9138 5.00086 11.9787 4.76413C12.1111 4.28238 12.5944 4.00349 13.0579 4.14096C13.1152 4.1579 13.1694 4.18075 13.2207 4.20793C13.2161 4.11181 13.2226 4.01413 13.2495 3.91644C13.3815 3.43429 13.8648 3.15541 14.3287 3.29288C14.7927 3.42996 15.0612 3.9318 14.9288 4.41355C14.9023 4.51045 14.8583 4.59632 14.8063 4.67471C14.8564 4.68022 14.9068 4.6881 14.9569 4.70268C15.4209 4.84015 15.6894 5.34199 15.557 5.82334C15.4922 6.06008 15.3416 6.24679 15.1511 6.36063C15.3203 6.47762 15.4436 6.65094 15.5028 6.8479" stroke="#3C3C3C" stroke-width="0.5" stroke-miterlimit="10" stroke-linecap="round" stroke-linejoin="round"/>
<path d="M13.1984 7.44008L13.8281 5.06836" stroke="#3C3C3C" stroke-width="0.5" stroke-miterlimit="10" stroke-linecap="round" stroke-linejoin="round"/>
<path d="M13.5737 6.02759L14.3389 5.57617" stroke="#3C3C3C" stroke-width="0.5" stroke-miterlimit="10" stroke-linecap="round" stroke-linejoin="round"/>
<path d="M13.2959 7.07445L12.9735 6.48438" stroke="#3C3C3C" stroke-width="0.5" stroke-miterlimit="10" stroke-linecap="round" stroke-linejoin="round"/>
<path d="M16.2158 9.70434C16.1123 9.53299 15.9609 9.38961 15.7708 9.29822C15.7064 9.2671 15.6404 9.24386 15.5736 9.22771C15.6495 9.1446 15.717 9.05124 15.7655 8.94134C16.0064 8.39972 15.7784 7.75765 15.2568 7.50791C14.7352 7.25778 14.1169 7.49452 13.8764 8.03614C13.8278 8.14486 13.8036 8.25791 13.7914 8.37096C13.7421 8.33551 13.6909 8.30164 13.6344 8.27485C13.1128 8.02472 12.4944 8.26146 12.2539 8.80308C12.1356 9.06936 12.1314 9.35928 12.219 9.61571C11.9785 9.58538 11.7373 9.6421 11.5366 9.77249" stroke="#3C3C3C" stroke-width="0.5" stroke-miterlimit="10" stroke-linecap="round" stroke-linejoin="round"/>
<path d="M13.7526 10.4448L14.6084 8.77734" stroke="#3C3C3C" stroke-width="0.5" stroke-miterlimit="10" stroke-linecap="round" stroke-linejoin="round"/>
<path d="M14.1449 9.68192L14.6953 9.50781" stroke="#3C3C3C" stroke-width="0.5" stroke-miterlimit="10" stroke-linecap="round" stroke-linejoin="round"/>
<path d="M13.8379 10.2784L13.594 9.44727" stroke="#3C3C3C" stroke-width="0.5" stroke-miterlimit="10" stroke-linecap="round" stroke-linejoin="round"/>
</svg>
